<svg xmlns="http://www.w3.org/2000/svg" viewBox="0 0 800 800"><g transform="matrix(33.333333333333336,0,0,33.333333333333336,0,0)"><path d="M19.949 12a.49.49 0 0 1-.486-.386 2 2 0 0 0-3.926 0 .49.49 0 0 1-.486.386H13v2.051a.49.49 0 0 0 .386.486 2 2 0 0 1 0 3.926.49.49 0 0 0-.386.486V21h8a1 1 0 0 0 1-1v-8z" style="stroke:#191919;stroke-linecap:round;stroke-linejoin:round;fill:#66e1ff"></path><path d="M19.949 3a.49.49 0 0 0-.486.386 2 2 0 0 1-3.926 0A.49.49 0 0 0 15.051 3H13v2.051a.49.49 0 0 1-.386.486 2 2 0 0 0 0 3.926.49.49 0 0 1 .386.486V12h2.051a.49.49 0 0 0 .486-.386 2 2 0 0 1 3.926 0 .49.49 0 0 0 .486.386H22V4a1 1 0 0 0-1-1z" style="fill:#ffef5e"></path><path d="M12.614 9.463a.49.49 0 0 1 .386.486V12h.149l8.629-8.629A1 1 0 0 0 21 3h-1.051a.49.49 0 0 0-.486.386 2 2 0 0 1-3.926 0A.49.49 0 0 0 15.051 3H13v2.051a.49.49 0 0 1-.386.486 2 2 0 0 0 0 3.926z" style="fill:#fff9bf"></path><path d="M4 5.051a.49.49 0 0 0 .386.486 2 2 0 0 1 0 3.926.49.49 0 0 0-.386.486V12h2.051a.49.49 0 0 1 .486.386 2 2 0 0 0 3.926 0 .49.49 0 0 1 .486-.386H13V9.949a.49.49 0 0 0-.386-.486 2 2 0 0 1 0-3.926.49.49 0 0 0 .386-.486V3H5a1 1 0 0 0-1 1z" style="fill:#c9f7ca;stroke:#191919;stroke-linecap:round;stroke-linejoin:round"></path><path d="M13.386 14.537a.49.49 0 0 1-.386-.486V12h-2.051a.49.49 0 0 0-.486.386 2 2 0 0 1-3.926 0A.49.49 0 0 0 6.051 12H4v2.051a.49.49 0 0 1-.386.486 2 2 0 0 0 0 3.926.49.49 0 0 1 .386.486V20a1 1 0 0 0 1 1h8v-2.051a.49.49 0 0 1 .386-.486 2 2 0 0 0 0-3.926z" style="fill:#ff808c"></path><path d="M4 18.949V20a1 1 0 0 0 .371.778L13 12.149V12h-2.051a.49.49 0 0 0-.486.386 2 2 0 0 1-3.926 0A.49.49 0 0 0 6.051 12H4v2.051a.49.49 0 0 1-.386.486 2 2 0 0 0 0 3.926.49.49 0 0 1 .386.486z" style="fill:#ffbfc5"></path><path d="M19.949 3a.49.49 0 0 0-.486.386 2 2 0 0 1-3.926 0A.49.49 0 0 0 15.051 3H13v2.051a.49.49 0 0 1-.386.486 2 2 0 0 0 0 3.926.49.49 0 0 1 .386.486V12h2.051a.49.49 0 0 0 .486-.386 2 2 0 0 1 3.926 0 .49.49 0 0 0 .486.386H22V4a1 1 0 0 0-1-1zm-6.563 11.537a.49.49 0 0 1-.386-.486V12h-2.051a.49.49 0 0 0-.486.386 2 2 0 0 1-3.926 0A.49.49 0 0 0 6.051 12H4v2.051a.49.49 0 0 1-.386.486 2 2 0 0 0 0 3.926.49.49 0 0 1 .386.486V20a1 1 0 0 0 1 1h8v-2.051a.49.49 0 0 1 .386-.486 2 2 0 0 0 0-3.926z" style="stroke:#191919;stroke-linecap:round;stroke-linejoin:round;fill:none"></path></g></svg>